<svg xmlns="http://www.w3.org/2000/svg" width="256" height="256">
  <circle cx="128" cy="128" r="128" fill="#fff"/>
  <path d="M177.875 200.5595c-9.637 9.3524-20.2696 7.8944-30.4044 3.485-10.7748-4.4985-20.6251-4.783-32.0045 0-14.171 6.1164-21.692 4.3383-30.2265-3.485C37.055 150.9525 44.167 75.3862 98.9304 72.5413c13.2819.7112 22.581 7.3433 30.4043 7.8945 11.6283-2.3648 22.7588-9.1391 35.205-8.2501 14.9532 1.209 26.137 7.1121 33.6048 17.727-30.76 18.4915-23.47 59.0306 4.7829 70.41-5.6542 14.8465-12.9085 29.5153-25.0702 40.3613zM128.2678 72.0079c-1.4402-22.0476 16.429-40.1835 36.983-41.9615 2.8271 25.4258-23.1144 44.4507-36.983 41.9615Z"/>
</svg>