<?xml version="1.0" encoding="UTF-8" standalone="no"?>

<svg
   width="512"
   height="512"
   viewBox="0 0 135.46666 135.46666"
   version="1.1"
   id="svg30197"
   xmlns="http://www.w3.org/2000/svg"
   xmlns:svg="http://www.w3.org/2000/svg">
  <circle
     style="fill:#0ea5e9;fill-opacity:1;stroke-width:11.3;stroke-linecap:round;paint-order:stroke fill markers"
     id="path36240"
     cx="67.73333"
     cy="67.73333"
     r="67.73333" />
  <path
     d="m 69.257334,111.06573 q -12.0904,0 -21.0312,-4.3688 -8.9408,-4.4704 -13.716,-12.598398 -4.7752,-8.128 -4.7752,-18.8976 0,-14.9352 5.588,-26.517599 5.6896,-11.5824 15.3416,-17.8816 9.652,-6.4008 21.4376,-6.4008 10.9728,0 16.662399,5.6896 5.6896,5.588 5.6896,14.8336 0,6.1976 -2.2352,9.956799 -2.1336,3.7592 -6.1976,3.7592 -2.844799,0 -4.470399,-1.3208 -1.6256,-1.3208 -1.6256,-3.8608 0,-0.9144 0.4064,-3.352799 0.6096,-3.048 0.6096,-4.8768 0,-9.2456 -9.8552,-9.2456 -6.7056,0 -12.8016,4.3688 -6.096,4.3688 -9.8552,12.903199 -3.7592,8.4328 -3.7592,20.1168 0,12.192 6.8072,18.8976 6.8072,6.604 20.1168,6.604 6.604,0 13.309599,-1.6256 6.8072,-1.7272 15.0368,-5.1816 1.523997,-0.6096 2.539997,-0.6096 1.6256,0 2.4384,1.2192 0.8128,1.2192 0.8128,3.1496 0,6.197598 -6.705597,9.143998 -7.2136,3.1496 -15.0368,4.6736 -7.721599,1.4224 -14.731999,1.4224 z"
     style="font-size:101.6px;line-height:1.25;font-family:Pacifico;-inkscape-font-specification:Pacifico;fill:#ffffff;stroke-width:0.264583"
     id="path36453" />
</svg>
