<svg xmlns="http://www.w3.org/2000/svg" width="256" height="256" viewBox="0 0 67.7333 67.7333">
  <path fill="#4285f4" d="M67.056 34.6189c0-2.7836-.2262-4.8152-.7149-6.9214H34.544v12.5641h18.664c-.376 3.1225-2.408 7.825-6.9236 10.9846l-.0635.4208 10.0537 7.7862.6965.0695c6.397-5.9065 10.0849-14.5961 10.0849-24.9038z" class="shp0"/>
  <path fill="#34a853" d="M34.544 67.7233c9.1438 0 16.8202-3.0094 22.4271-8.2006l-10.6867-8.2765c-2.86 1.994-6.6982 3.3858-11.7404 3.3858-8.956 0-16.5569-5.906-19.2667-14.069l-.3969.0337-10.454 8.0879-.1366.3798C9.8587 60.1241 21.2982 67.7233 34.544 67.7233Z" class="shp1"/>
  <path fill="#fbbc05" d="M15.2773 40.563c-.7148-2.1067-1.1284-4.364-1.1284-6.6961 0-2.3325.4136-4.5898 1.0909-6.6965l-.0188-.4486-10.585-8.2176-.3462.1643C1.9944 23.2583.6773 28.4119.6773 33.8669c0 5.4545 1.3171 10.6081 3.6125 15.1975z" class="shp2"/>
  <path fill="#eb4335" d="M34.544 13.1013c6.3593 0 10.6491 2.746 13.0951 5.041l9.5578-9.3295C51.3267 3.3583 43.6878.01 34.544.01 21.2982.01 9.8587 7.6088 4.2898 18.6685l10.95 8.5019c2.7473-8.163 10.3482-14.0691 19.3042-14.0691Z" class="shp3"/>
</svg>