<svg xmlns="http://www.w3.org/2000/svg" width="256" height="256">
  <path fill="#4285f4" d="M253.4723 130.8489c0-10.5234-.8552-18.2039-2.7027-26.1664H130.5607v47.4986H201.12c-1.4214 11.8046-9.1034 29.5824-26.1746 41.5273l-.24 1.5908 38.008 29.4357 2.633.2628c24.1839-22.3296 38.126-55.1806 38.126-94.1488z"/>
  <path fill="#34a853" d="M130.5607 256c34.5681 0 63.5888-11.377 84.7856-31.0023l-40.401-31.2893c-10.8122 7.5383-25.3225 12.8-44.3846 12.8-33.8581 0-62.5933-22.3276-72.8377-53.1879l-1.5005.1274-39.5213 30.5763-.5164 1.4359C37.238 227.2712 80.485 256 130.5608 256Z"/>
  <path fill="#fbbc05" d="M57.723 153.3205c-2.7023-7.9643-4.266-16.498-4.266-25.3146 0-8.818 1.5637-17.3517 4.1242-25.316l-.071-1.696-40.0166-31.0666-1.3088.6211c-8.6778 17.3518-13.657 36.835-13.657 57.4576 0 20.6207 4.9792 40.1039 13.657 57.454z"/>
  <path fill="#eb4335" d="M130.5607 49.5016c24.0413 0 40.259 10.3813 49.506 19.0575L216.2 33.289C194.0077 12.6682 165.1288.01 130.5607.01 80.485.01 37.238 28.7372 16.1847 70.5484l41.3965 32.1414c10.3862-30.8602 39.1214-53.1882 72.9795-53.1882Z"/>
</svg>