<?xml version="1.0" encoding="UTF-8" standalone="no"?>
<!-- Created with Inkscape (http://www.inkscape.org/) -->

<svg
   width="416.63995"
   height="238.71335"
   viewBox="0 0 110.23598 63.159575"
   version="1.1"
   id="svg5"
   xmlns="http://www.w3.org/2000/svg"
   xmlns:svg="http://www.w3.org/2000/svg">
  <defs
     id="defs2" />
  <g
     id="layer1"
     transform="translate(-12.61543,-35.272133)">
    <g
       aria-label="Caity"
       id="text2444-3"
       style="font-size:50.8px;line-height:1.25;display:inline;opacity:1;fill:#ffffff;stroke-width:0.264583">
      <path
         d="m 32.37663,78.604533 q -6.0452,0 -10.5156,-2.1844 -4.4704,-2.2352 -6.858,-6.2992 -2.3876,-4.064 -2.3876,-9.4488 0,-7.4676 2.794,-13.2588 2.8448,-5.7912 7.6708,-8.9408 4.826,-3.2004 10.7188,-3.2004 5.4864,0 8.3312,2.8448 2.8448,2.794 2.8448,7.4168 0,3.0988 -1.1176,4.9784 -1.0668,1.8796 -3.0988,1.8796 -1.4224,0 -2.2352,-0.6604 -0.8128,-0.6604 -0.8128,-1.9304 0,-0.4572 0.2032,-1.6764 0.3048,-1.524 0.3048,-2.4384 0,-4.6228 -4.9276,-4.6228 -3.3528,0 -6.4008,2.1844 -3.048,2.1844 -4.9276,6.4516 -1.8796,4.2164 -1.8796,10.0584 0,6.096 3.4036,9.4488 3.4036,3.302 10.0584,3.302 3.302,0 6.6548,-0.8128 3.4036,-0.8636 7.5184,-2.5908 0.762,-0.3048 1.27,-0.3048 0.8128,0 1.2192,0.6096 0.4064,0.6096 0.4064,1.5748 0,3.0988 -3.3528,4.572 -3.6068,1.5748 -7.5184,2.3368 -3.8608,0.7112 -7.366,0.7112 z"
         style="font-family:Pacifico;-inkscape-font-specification:Pacifico"
         id="path16861" />
      <path
         d="m 52.899773,78.604533 q -3.149599,0 -5.029199,-2.286 -1.8796,-2.286 -1.8796,-5.9944 0,-4.064 1.8796,-7.6708 1.8796,-3.6576 4.978399,-5.842 3.1496,-2.2352 6.6548,-2.2352 1.1176,0 1.4732,0.4572 0.4064,0.4064 0.6604,1.524 1.0668,-0.2032 2.2352,-0.2032 2.4892,0 2.4892,1.778 0,1.0668 -0.762,5.08 -1.1684,5.842 -1.1684,8.128 0,0.762 0.3556,1.2192 0.4064,0.4572 1.016,0.4572 0.9652,0 2.3368,-1.2192 1.3716,-1.27 3.7084,-4.064 0.6096,-0.7112 1.3716,-0.7112 0.6604,0 1.016,0.6096 0.4064,0.6096 0.4064,1.6764 0,2.032 -0.9652,3.1496 -2.0828,2.5908 -4.4196,4.3688 -2.3368,1.778 -4.5212,1.778 -1.6764,0 -3.0988,-1.1176 -1.3716,-1.1684 -2.0828,-3.1496 -2.6416,4.2672 -6.6548,4.2672 z m 1.8288,-5.1308 q 1.1176,0 2.1336,-1.3208 1.016,-1.3208 1.4732,-3.5052 l 1.8796,-9.3472 q -2.1336,0.0508 -3.9624,1.6256 -1.778,1.524 -2.8448,4.064 -1.0668,2.54 -1.0668,5.3848 0,1.5748 0.6096,2.3368 0.6604,0.762 1.778,0.762 z"
         style="font-family:Pacifico;-inkscape-font-specification:Pacifico"
         id="path16863" />
      <path
         d="m 77.182139,51.324933 q -2.1336,0 -3.2004,-0.9652 -1.0668,-1.016 -1.0668,-2.794 0,-1.778 1.3716,-2.9464 1.4224,-1.2192 3.5052,-1.2192 1.8796,0 3.048,0.9144 1.1684,0.9144 1.1684,2.5908 0,2.032 -1.3208,3.2512 -1.3208,1.1684 -3.5052,1.1684 z m -0.4064,27.2796 q -3.302,0 -4.826,-2.3368 -1.4732,-2.3368 -1.4732,-6.1976 0,-2.286 0.5588,-5.842 0.6096,-3.6068 1.524,-6.7056 0.4572,-1.6256 1.2192,-2.2352 0.762,-0.6096 2.4384,-0.6096 2.5908,0 2.5908,1.7272 0,1.27 -0.9652,5.8928 -1.2192,5.588 -1.2192,7.5692 0,1.524 0.4064,2.3368 0.4064,0.8128 1.3716,0.8128 0.9144,0 2.286,-1.27 1.3716,-1.27 3.657599,-4.0132 0.6096,-0.7112 1.3716,-0.7112 0.6604,0 1.016,0.6096 0.4064,0.6096 0.4064,1.6764 0,2.032 -0.9652,3.1496 -5.029199,6.1468 -9.397999,6.1468 z"
         style="font-family:Pacifico;-inkscape-font-specification:Pacifico"
         id="path16865" />
      <path
         d="m 105.68086,67.022133 c 0.44027,0 0.77893,0.2032 1.016,0.6096 0.27093,0.4064 0.4064,0.9652 0.4064,1.6764 0,1.354667 -0.32173,2.404533 -0.9652,3.1496 -1.45627,1.794933 -3.048,3.268133 -4.7752,4.4196 -1.727201,1.151467 -3.708402,1.7272 -5.943602,1.7272 -6.9088,0 -10.3632,-4.859867 -10.3632,-14.5796 0,-1.490133 0.0508,-2.9972 0.1524,-4.5212 h -1.9812 c -1.016,0 -1.710267,-0.186267 -2.0828,-0.5588 -0.338667,-0.372533 -0.508,-0.9652 -0.508,-1.778 0,-1.896533 0.762,-2.8448 2.286,-2.8448 h 2.8956 c 0.575733,-3.725333 1.102291,-5.141105 1.873423,-6.057049 0.771132,-0.915944 4.476422,-0.713071 4.945331,0.133333 0.468909,0.846404 -0.740477,2.793159 -0.894261,5.923716 h 10.077509 c 0.54187,0 0.93133,0.118533 1.1684,0.3556 0.23707,0.237067 0.3556,0.677333 0.3556,1.3208 0,2.3368 -1.91347,3.5052 -5.740402,3.5052 h -6.1976 c -0.06773,1.693333 -0.1016,3.014133 -0.1016,3.9624 0,3.522133 0.4064,5.9944 1.2192,7.4168 0.846667,1.4224 2.167467,2.1336 3.9624,2.1336 1.456267,0 2.743201,-0.440267 3.860802,-1.3208 1.1176,-0.880533 2.4384,-2.201333 3.9624,-3.9624 0.4064,-0.474133 0.8636,-0.7112 1.3716,-0.7112 z"
         style="font-family:Pacifico;-inkscape-font-specification:Pacifico;display:inline"
         id="path16867" />
      <path
         id="path16869"
         style="font-family:Pacifico;-inkscape-font-specification:Pacifico;display:inline;opacity:1;stroke-width:0.999999"
         d="m 413.82422,206.65625 c -4.992,0 -8.64131,0.83209 -10.94531,2.49609 -2.304,1.66401 -4.09499,4.41586 -5.375,8.25586 -2.94399,8.96 -5.05593,17.47116 -6.33594,25.53516 -1.28001,7.936 -1.91992,16.70469 -1.91992,26.30469 0,7.936 1.79098,14.59275 5.375,19.96875 3.71198,5.248 8.44898,7.87109 14.20898,7.87109 5.12001,0 9.9838,-2.36751 14.5918,-7.10351 4.608,-4.864 8.19196,-11.9051 10.75195,-21.1211 -10.05278,66.8023 -11.33099,79.24426 -55.93205,78.70852 -62.8553,-0.75501 -129.58178,-22.74853 -198.97976,-23.77914 -32.87508,-0.48822 -79.521519,17.19647 -86.244389,28.84082 -4.881733,8.45541 -0.138403,17.97589 8.484829,19.31636 10.80922,1.68027 44.45046,-25.23418 79.74,-25.43642 71.78196,-0.41137 163.54594,29.65239 223.26542,18.56522 43.76366,-12.09296 45.39647,-59.4429 49.6347,-88.53372 0.51201,-3.328 2.23961,-14.01645 5.18359,-32.06445 3.32799,-18.816 4.99219,-29.76003 4.99219,-32.83203 0,-1.792 -0.57651,-3.07185 -1.72851,-3.83985 -1.152,-0.768 -3.20055,-1.15234 -6.14453,-1.15234 -4.224,0 -7.42363,0.83209 -9.59961,2.49609 -2.04802,1.66401 -3.58344,4.41586 -4.60743,8.25586 -3.072,11.392 -6.27357,20.99083 -9.60156,28.79883 -3.20001,7.808 -6.27085,13.63266 -9.21484,17.47266 -2.81601,3.84 -5.18352,5.75976 -7.10352,5.75976 -2.688,0 -4.0332,-2.43092 -4.0332,-7.29492 0,-3.072 0.38434,-6.97689 1.15234,-11.71289 0.768,-4.864 1.66352,-9.91997 2.6875,-15.16797 0.768,-3.84 1.79226,-8.12728 3.07227,-12.86328 1.40799,-5.888 2.11328,-9.34514 2.11328,-10.36914 0,-1.792 -0.57652,-3.13525 -1.72852,-4.03125 -1.02398,-0.896 -2.94375,-1.34375 -5.75976,-1.34375 z"
         transform="scale(0.26458333)" />
    </g>
  </g>
</svg>
